<svg id="Layer_1" data-name="Layer 1" xmlns="http://www.w3.org/2000/svg" viewBox="0 0 526.32 526.32"><defs><style>.cls-1{fill:#fff;}</style></defs><rect width="526.32" height="526.32" rx="34.2"/><path class="cls-1" d="M951.61,1107.28H879a6.81,6.81,0,0,1-5.21-11.2l169.41-200.94a6.84,6.84,0,0,1,5.21-2.42H1121a6.81,6.81,0,0,1,5.21,11.2L956.82,1104.86A6.84,6.84,0,0,1,951.61,1107.28Z" transform="translate(-736.84 -736.84)"/><path class="cls-1" d="M951.61,959.94H879a6.81,6.81,0,0,1-5.21-11.2L919,895.14a6.84,6.84,0,0,1,5.21-2.42H996.8a6.81,6.81,0,0,1,5.21,11.2l-45.19,53.6A6.84,6.84,0,0,1,951.61,959.94Z" transform="translate(-736.84 -736.84)"/><path class="cls-1" d="M1075.83,1107.28H1003.2a6.81,6.81,0,0,1-5.21-11.2l45.19-53.6a6.84,6.84,0,0,1,5.21-2.42H1121a6.81,6.81,0,0,1,5.21,11.2l-45.19,53.6A6.84,6.84,0,0,1,1075.83,1107.28Z" transform="translate(-736.84 -736.84)"/></svg>